<?xml version="1.0" encoding="UTF-8"?>
<svg width="60px" height="61px" viewBox="0 0 60 61" version="1.1" xmlns="http://www.w3.org/2000/svg" xmlns:xlink="http://www.w3.org/1999/xlink">
    <!-- Generator: Sketch 52.5 (67469) - http://www.bohemiancoding.com/sketch -->
    <title>Icon</title>
    <desc>Created with Sketch.</desc>
    <g id="Site" stroke="none" stroke-width="1" fill="none" fill-rule="evenodd">
        <g id="Index" transform="translate(-434.000000, -3267.000000)">
            <g id="Icon" transform="translate(434.000000, 3267.609514)">
                <g id="Group-3">
                    <polygon id="Clip-2" points="0 1.17303642e-05 59.9999883 1.17303642e-05 59.9999883 60.0594648 0 60.0594648"></polygon>
                    <path d="M39.3840117,18.8341672 C41.6861602,18.8341672 43.9883086,18.828302 46.290457,18.8395632 C46.7019023,18.8415574 46.8367852,18.7820844 46.6899492,18.3142775 C46.2178008,16.8100929 45.3598711,15.570428 44.1400664,14.6136995 C39.9333867,11.3145345 33.8180742,13.2072288 32.1486211,18.2890572 C32.0058867,18.7234326 32.0419805,18.8497686 32.536043,18.8446072 C34.8185039,18.8211465 37.1013164,18.8342845 39.3840117,18.8341672 M20.584793,18.8158679 C24.8017852,18.8118795 28.2219023,15.4079624 28.2371367,11.1998116 C28.2523711,7.00151422 24.7455352,3.49401802 20.557957,3.519121 C16.3610039,3.54434128 12.9412383,6.9942414 12.9504961,11.1937118 C12.9597539,15.4205139 16.3645195,18.8198562 20.584793,18.8158679 M15.0299883,39.4766757 C15.031043,39.4766757 15.0320977,39.4766757 15.0331523,39.4766757 C15.0331523,33.9646948 15.0281133,28.452714 15.0429961,22.9408504 C15.0440508,22.5115191 14.9500664,22.3734527 14.4997148,22.377441 C11.8638164,22.4010191 9.22756641,22.3906964 6.59155078,22.3964442 C6.32014453,22.3970307 6.05026172,22.4005499 5.77979297,22.4749204 C4.32690234,22.8738701 3.52158984,23.9728879 3.52053516,25.6316787 C3.51479297,34.8573755 3.51244922,44.0830724 3.51573047,53.3087692 C3.51643359,55.2890893 4.76014453,56.5342675 6.73358203,56.5401327 C9.29155078,56.5478747 11.8498711,56.5208949 14.4074883,56.5519803 C14.9467852,56.5585493 15.0419414,56.3890456 15.040418,55.8951972 C15.0237773,50.4223958 15.0299883,44.9494771 15.0299883,39.4766757 M36.430418,22.3879984 C30.6690117,22.3879984 24.9076055,22.3930424 19.1463164,22.3780276 C18.7052227,22.3769718 18.5940117,22.4986157 18.5944805,22.9340468 C18.6063164,33.9598854 18.6067852,44.9857239 18.5933086,56.0115625 C18.5927227,56.467639 18.7368633,56.5516284 19.1572148,56.5512765 C30.5236992,56.54025 41.8901836,56.5448248 53.256668,56.54025 C55.2452227,56.5395462 56.4831914,55.3059811 56.4840117,53.3209688 C56.4879961,44.1132194 56.4699492,34.9053527 56.4919805,25.6976033 C56.4969023,23.6533528 55.1236992,22.3448306 53.1283477,22.3667664 C47.5629961,22.4278816 41.9964727,22.3879984 36.430418,22.3879984 M59.9999883,24.3991693 L59.9999883,54.5462054 C59.9614336,54.630664 59.905418,54.7113689 59.8870195,54.8000504 C59.4318633,56.9834231 58.1781914,58.5290159 56.1811992,59.4973575 C55.6394414,59.7601177 55.0419023,59.8331978 54.4921758,60.0594765 L5.50780078,60.0594765 C5.42342578,60.0208836 5.34268359,59.9638741 5.25420703,59.9465131 C3.49264453,59.6004674 2.12483203,58.6625075 1.09405078,57.2036021 C0.525808594,56.3994856 0.285339844,55.4646929 -1.171875e-05,54.5462054 L-1.171875e-05,24.3991693 C0.100652344,24.3154145 0.0976054687,24.1942398 0.119519531,24.0799861 C0.670652344,21.2011201 3.09092578,19.0367506 6.02893359,18.8848424 C7.62573047,18.8023779 9.22885547,18.8440207 10.829168,18.8317038 C11.310457,18.8280674 11.7918633,18.8311173 12.2859258,18.8311173 C12.2574492,18.545483 12.0831914,18.4322849 11.9643633,18.2902302 C6.60643359,11.8822842 10.1350664,1.86420121 18.3240117,0.220542578 C18.661043,0.152858376 19.0288945,0.20740457 19.3359258,1.17303642e-05 L21.7968633,1.17303642e-05 C22.0303008,0.188987898 22.3220977,0.118957624 22.5849492,0.169750101 C28.105418,1.23803437 31.9021758,5.97252667 31.7524102,11.6035707 C31.7457305,11.8553043 31.6522148,12.1260411 31.8036211,12.4089775 C31.9764727,12.2618788 32.1065508,12.146452 32.2414336,12.0368904 C34.8678398,9.90372364 37.8732305,8.96154078 41.1987773,9.5838366 C46.1401055,10.5085412 49.1944805,13.530283 50.3650664,18.4290004 C50.4428789,18.7547527 50.5668633,18.8346364 50.8685039,18.8304135 C51.7078008,18.8188004 52.5478008,18.8159852 53.3868633,18.8380382 C56.4365508,18.9178047 58.7555742,20.5627537 59.6749102,23.2904153 C59.7978398,23.654995 59.892293,24.0293109 59.9999883,24.3991693" id="Fill-1" fill="#96C82F"></path>
                </g>
                <path d="M49.8844453,39.4549041 C49.8852656,32.6735805 44.3378438,27.10764 37.5626484,27.091804 C30.7654219,27.075968 25.1851875,32.6497679 25.1860078,39.454083 C25.1868281,46.2415063 30.6797578,51.824104 37.5013594,51.808268 C44.4231563,51.7921974 49.7868281,46.3685462 49.8844453,39.4549041 M21.6495234,39.4469275 C21.6014766,30.7783056 28.7029219,23.6377983 37.4469844,23.562724 C46.1493281,23.4880015 53.3943281,30.6405911 53.4270234,39.3388908 C53.4600703,48.1627054 46.3657734,55.3524802 37.4962031,55.3456766 C28.7631562,55.3389903 21.6878437,48.2902144 21.6495234,39.4469275" id="Fill-4" fill="#96C82F"></path>
                <path d="M11.0445,39.4138478 C11.0568047,40.4128056 10.287,41.2019072 9.29184375,41.2103531 C8.33172656,41.2184471 7.54211719,40.4515158 7.51821094,39.4873972 C7.49453906,38.5339532 8.32516406,37.6810384 9.28258594,37.6756425 C10.2374297,37.6703638 11.0326641,38.4548906 11.0445,39.4138478" id="Fill-6" fill="#96C82F"></path>
                <path d="M36.5940586,42.8168382 C37.1214023,42.8168382 37.6487461,42.8225861 38.1759727,42.8153133 C38.8021055,42.8068674 39.1389023,42.5375382 39.1524961,42.049907 C39.1670273,41.5333018 38.8351523,41.2507173 38.1708164,41.2274912 C37.5663633,41.2063765 36.9613242,41.2020363 36.3569883,41.1788102 C34.404293,41.1037358 32.7122227,39.508289 32.3981602,37.5628081 C32.0871445,35.6351573 33.1398398,33.6476817 34.9916367,32.9221587 C35.6126133,32.6788709 35.803043,32.4033247 35.7733945,31.7616738 C35.7361289,30.9553285 36.2695664,30.2931495 36.974918,30.0666361 C37.7010117,29.8335538 38.4967148,30.094789 38.9610117,30.7066448 C39.251168,31.0888201 39.325582,31.531524 39.288082,31.9833776 C39.2504648,32.4366389 39.4280039,32.5357605 39.8538633,32.5377547 C40.9768711,32.542916 41.728043,33.144801 41.8328086,34.0543735 C41.9633555,35.1882305 41.2222617,36.0376261 40.0196836,36.0879494 C39.278707,36.1189176 38.5356211,36.0953395 37.7934727,36.0961606 C37.4809336,36.0965126 37.1683945,36.0905301 36.8560898,36.0982721 C36.2522227,36.1135216 35.884957,36.4098306 35.8790977,36.8766991 C35.8732383,37.3364121 36.2598398,37.6547741 36.8421445,37.6711967 C37.5629648,37.6914902 38.2826133,37.6501993 39.0047227,37.751667 C40.838707,38.0095004 42.4407773,39.5467646 42.648082,41.2949408 C42.9041367,43.452624 41.8560117,45.3737057 39.9602695,46.0423365 C39.4112461,46.2358875 39.2751914,46.4762426 39.2737852,47.0185374 C39.269918,48.5440712 37.8501914,49.4109452 36.6254648,48.6684131 C35.9996836,48.2890531 35.7129258,47.6999542 35.7640195,46.9874519 C35.8017539,46.4606413 35.6218711,46.3350091 35.1117539,46.3423992 C33.9778477,46.3588217 33.1805039,45.5935327 33.1882383,44.5843695 C33.1958555,43.5742678 34.0084336,42.8351376 35.129332,42.8235245 C35.6175352,42.8185978 36.1058555,42.8227034 36.5940586,42.8227034 L36.5940586,42.8168382 Z" id="Fill-8" fill="#96C82F"></path>
            </g>
        </g>
    </g>
</svg>