<?xml version="1.0" encoding="UTF-8"?>
<svg width="60px" height="63px" viewBox="0 0 60 63" version="1.1" xmlns="http://www.w3.org/2000/svg" xmlns:xlink="http://www.w3.org/1999/xlink">
    <!-- Generator: Sketch 52.5 (67469) - http://www.bohemiancoding.com/sketch -->
    <title>Group 3</title>
    <desc>Created with Sketch.</desc>
    <g id="Site" stroke="none" stroke-width="1" fill="none" fill-rule="evenodd">
        <g id="Index" transform="translate(-641.000000, -2777.000000)">
            <g id="Group-3" transform="translate(641.000000, 2777.123885)">
                <polygon id="Clip-2" points="4.87804878e-05 0 59.9936585 0 59.9936585 62.0614349 4.87804878e-05 62.0614349"></polygon>
                <path d="M56.2672439,58.3575059 L39.7452927,58.3575059 L32.1733415,38.9460913 L39.3155366,31.8470861 L41.4311463,31.8470861 C49.6117561,31.8470861 56.2672439,38.4623272 56.2672439,46.5935889 L56.2672439,58.3575059 Z M24.2460244,58.3575059 L29.9972439,43.6139122 L35.7484634,58.3575059 L24.2460244,58.3575059 Z M3.7265122,46.5937101 C3.7265122,38.4624484 10.382122,31.8472073 18.5627317,31.8472073 L20.6782195,31.8472073 L27.8210244,38.9468186 L20.2493171,58.3575059 L3.7265122,58.3575059 L3.7265122,46.5937101 Z M17.7029756,15.9235976 C17.7029756,9.18556689 23.2179756,3.70391685 29.996878,3.70391685 C36.7757805,3.70391685 42.2909024,9.18556689 42.2909024,15.9235976 C42.2909024,22.6616283 36.7759024,28.1432783 29.996878,28.1432783 C23.2179756,28.1431571 17.7029756,22.6615071 17.7029756,15.9235976 Z M29.996878,35.8712618 L25.9482195,31.8470861 L34.0455366,31.8470861 L29.996878,35.8712618 Z M41.4311463,28.1431571 L40.2567561,28.1431571 C43.7750488,25.2198448 46.0172439,20.8274216 46.0172439,15.9234764 C46.0173659,7.14311497 38.8305366,-1.21213764e-05 29.996878,-1.21213764e-05 C21.1630976,-1.21213764e-05 13.9763902,7.14311497 13.9763902,15.9235976 C13.9763902,20.8274216 16.2185854,25.2198448 19.737,28.1432783 L18.5627317,28.1432783 C8.32712195,28.1432783 4.87804878e-05,36.4201177 4.87804878e-05,46.5937101 L4.87804878e-05,60.209531 C4.87804878e-05,61.2322115 0.834195122,62.0614349 1.86321951,62.0614349 L21.5252927,62.0614349 L38.4691951,62.0614349 L58.1305366,62.0614349 C59.159439,62.0614349 59.9937073,61.2322115 59.9937073,60.209531 L59.9937073,46.5937101 C59.9937073,36.4199965 51.6665122,28.1431571 41.4311463,28.1431571 Z" id="Fill-1" fill="#96C82F"></path>
            </g>
        </g>
    </g>
</svg>