<?xml version="1.0" encoding="UTF-8"?>
<svg width="60px" height="61px" viewBox="0 0 60 61" version="1.1" xmlns="http://www.w3.org/2000/svg" xmlns:xlink="http://www.w3.org/1999/xlink">
    <!-- Generator: Sketch 52.5 (67469) - http://www.bohemiancoding.com/sketch -->
    <title>Icon</title>
    <desc>Created with Sketch.</desc>
    <g id="Site" stroke="none" stroke-width="1" fill="none" fill-rule="evenodd">
        <g id="Index" transform="translate(-227.000000, -2778.000000)" fill="#96C82F">
            <g id="Icon" transform="translate(227.000000, 2778.124876)">
                <path d="M56.484375,56.5403556 L38.90625,56.5403556 L38.90625,51.2616917 C38.90625,48.3510364 41.2719141,45.9830278 44.1796875,45.9830278 L51.2109375,45.9830278 C54.1187109,45.9830278 56.484375,48.3510364 56.484375,51.2616917 L56.484375,56.5403556 Z M30,52.9039426 C28.0334766,52.9039426 26.1950391,52.6620625 24.609375,52.2004727 L24.609375,51.2616917 C24.609375,47.2319596 21.8878125,43.8288637 18.1886719,42.7910783 C18.9130078,41.6846704 19.3359375,40.3635968 19.3359375,38.9448092 C19.3359375,35.1838198 16.3735547,32.1024878 12.661875,31.9156231 C13.381875,28.4314703 15.1702734,25.15342 17.6953125,22.6453508 L17.6953125,26.3933195 C17.6953125,27.3650629 18.4823437,28.1528741 19.453125,28.1528741 L40.546875,28.1528741 C41.5176563,28.1528741 42.3046875,27.3650629 42.3046875,26.3933195 L42.3046875,22.6453508 C44.8297266,25.15342 46.618125,28.4314703 47.338125,31.9156231 C43.6264453,32.1024878 40.6640625,35.1838198 40.6640625,38.9448092 C40.6640625,40.3635968 41.0869922,41.6846704 41.8113281,42.7910783 C38.1121875,43.8288637 35.390625,47.2319596 35.390625,51.2616917 L35.390625,52.2004727 C33.8049609,52.6620625 31.9664062,52.9039426 30,52.9039426 Z M21.09375,56.5403556 L3.515625,56.5403556 L3.515625,51.2616917 C3.515625,48.3510364 5.88128906,45.9830278 8.7890625,45.9830278 L15.8203125,45.9830278 C18.7280859,45.9830278 21.09375,48.3510364 21.09375,51.2616917 L21.09375,56.5403556 Z M12.3046875,35.4257 C14.2432031,35.4257 15.8203125,37.0043724 15.8203125,38.9448092 C15.8203125,40.8852461 14.2432031,42.4639185 12.3046875,42.4639185 C10.3661719,42.4639185 8.7890625,40.8852461 8.7890625,38.9448092 C8.7890625,37.0043724 10.3661719,35.4257 12.3046875,35.4257 Z M26.484375,14.0764371 L33.515625,14.0764371 C36.4233984,14.0764371 38.7890625,16.4444457 38.7890625,19.355101 L38.7890625,24.6337649 L21.2109375,24.6337649 L21.2109375,19.355101 C21.2109375,16.4444457 23.5766016,14.0764371 26.484375,14.0764371 Z M30,3.51910927 C31.9385156,3.51910927 33.515625,5.09778168 33.515625,7.03821853 C33.515625,8.97865538 31.9385156,10.5573278 30,10.5573278 C28.0614844,10.5573278 26.484375,8.97865538 26.484375,7.03821853 C26.484375,5.09778168 28.0614844,3.51910927 30,3.51910927 Z M47.6953125,42.4639185 C45.7567969,42.4639185 44.1796875,40.8852461 44.1796875,38.9448092 C44.1796875,37.0043724 45.7567969,35.4257 47.6953125,35.4257 C49.6338281,35.4257 51.2109375,37.0043724 51.2109375,38.9448092 C51.2109375,40.8852461 49.6338281,42.4639185 47.6953125,42.4639185 Z M53.5792969,42.7910783 C54.3036328,41.6846704 54.7265625,40.3635968 54.7265625,38.9448092 C54.7265625,36.2754475 53.2341797,33.9483779 51.0407813,32.7556344 C50.6688281,29.8503751 49.6766016,26.9918027 48.1402734,24.4291873 C46.6066406,21.8711468 44.5610156,19.6516446 42.1935938,17.9634106 C41.6505469,14.5579685 39.1483594,11.8002772 35.8839844,10.8843704 C36.6083203,9.7780797 37.03125,8.45700609 37.03125,7.03821853 C37.03125,3.15734483 33.8770313,0 30,0 C26.1229687,0 22.96875,3.15734483 22.96875,7.03821853 C22.96875,8.45700609 23.3916797,9.7780797 24.1160156,10.8844877 C20.8516406,11.8002772 18.3494531,14.5580858 17.8064062,17.9635279 C15.4389844,19.6516446 13.3933594,21.8712641 11.8597266,24.4293046 C10.3233984,26.99192 9.33117187,29.8503751 8.95921875,32.7557517 C6.76582031,33.9483779 5.2734375,36.2754475 5.2734375,38.9448092 C5.2734375,40.3635968 5.69636719,41.6846704 6.42070312,42.7910783 C2.7215625,43.8288637 0,47.2319596 0,51.2616917 L0,58.2999102 C0,59.2716536 0.78703125,60.0594648 1.7578125,60.0594648 L22.8515625,60.0594648 C23.8223437,60.0594648 24.609375,59.2716536 24.609375,58.2999102 L24.609375,55.8388798 C26.2596094,56.2263337 28.0628906,56.4230519 30,56.4230519 C31.9369922,56.4230519 33.7403906,56.2263337 35.390625,55.8388798 L35.390625,58.2999102 C35.390625,59.2716536 36.1776562,60.0594648 37.1484375,60.0594648 L58.2421875,60.0594648 C59.2129688,60.0594648 60,59.2716536 60,58.2999102 L60,51.2616917 C60,47.2319596 57.2784375,43.8288637 53.5792969,42.7910783 Z" id="Fill-1"></path>
                <path d="M36.5163281,32.3046019 C35.8299609,31.6174372 34.7169141,31.6174372 34.0304297,32.3046019 L28.2421875,38.098698 L25.9694531,35.8237112 C25.2830859,35.1365465 24.1700391,35.1365465 23.4835547,35.8237112 C22.7970703,36.5108759 22.7970703,37.6249086 23.4835547,38.3120734 L26.9991797,41.8311826 C27.6855469,42.5182301 28.7985938,42.5183474 29.4850781,41.8311826 L36.5163281,34.7929641 C37.2028125,34.1059167 37.2028125,32.9917667 36.5163281,32.3046019" id="Fill-3"></path>
            </g>
        </g>
    </g>
</svg>