<?xml version="1.0" encoding="UTF-8"?>
<svg width="60px" height="62px" viewBox="0 0 60 62" version="1.1" xmlns="http://www.w3.org/2000/svg" xmlns:xlink="http://www.w3.org/1999/xlink">
    <!-- Generator: Sketch 52.5 (67469) - http://www.bohemiancoding.com/sketch -->
    <title>Group 10</title>
    <desc>Created with Sketch.</desc>
    <g id="Site" stroke="none" stroke-width="1" fill="none" fill-rule="evenodd">
        <g id="Index" transform="translate(-848.000000, -3266.000000)">
            <g id="Group-10" transform="translate(848.000000, 3266.608523)">
                <g id="Group-3" transform="translate(0.000000, 0.118907)">
                    <polygon id="Clip-2" points="0 0.00011902623 59.9266574 0.00011902623 59.9266574 60.941394 0 60.941394"></polygon>
                    <path d="M46.7665782,57.3470399 C41.4884792,57.3470399 37.1943802,53.0451939 37.1943802,47.7575726 C37.1943802,42.4699514 41.4884792,38.1682244 46.7665782,38.1682244 C52.0446772,38.1682244 56.3387762,42.4699514 56.3387762,47.7575726 C56.3387762,53.0451939 52.0446772,57.3470399 46.7665782,57.3470399 M22.7324792,47.7575726 C22.7324792,53.0451939 18.4383802,57.3470399 13.1602812,57.3470399 C7.88218218,57.3470399 3.58820198,53.0451939 3.58820198,47.7575726 C3.58820198,42.4699514 7.88218218,38.1682244 13.1602812,38.1682244 C18.4383802,38.1682244 22.7324792,42.4699514 22.7324792,47.7575726 M20.237905,13.1840237 C20.237905,7.89640243 24.532004,3.59467546 29.810103,3.59467546 C35.088202,3.59467546 39.382301,7.89640243 39.382301,13.1840237 C39.382301,18.4716449 35.088202,22.7734909 29.810103,22.7734909 C24.532004,22.7734909 20.237905,18.4716449 20.237905,13.1840237 M48.5606376,34.6965864 L48.5606376,30.4346142 C48.5606376,29.4420544 47.7573505,28.6373181 46.7665782,28.6373181 L31.6041624,28.6373181 L31.6041624,26.2448909 C38.0150139,25.3656441 42.970301,19.8441364 42.970301,13.1840237 C42.970301,5.91437765 37.0666574,8.33183609e-05 29.810103,8.33183609e-05 C22.5535485,8.33183609e-05 16.649905,5.91437765 16.649905,13.1840237 C16.649905,19.8441364 21.6051921,25.3656441 28.0160436,26.2448909 L28.0160436,28.6373181 L12.8537465,28.6373181 C11.8629743,28.6373181 11.0598059,29.4420544 11.0598059,30.4346142 L11.0598059,34.7422925 C4.79818218,35.7528252 -3.56435644e-05,41.2039884 -3.56435644e-05,47.7574536 C-3.56435644e-05,55.0270996 5.90360792,60.941394 13.1601624,60.941394 C20.4167168,60.941394 26.3203604,55.0270996 26.3203604,47.7574536 C26.3203604,40.9916456 21.2063406,35.4008646 14.6476871,34.6582599 L14.6476871,32.2317912 L44.9724,32.2317912 L44.9724,34.6965864 C38.5615485,35.5759522 33.6062614,41.09746 33.6062614,47.7574536 C33.6062614,55.0270996 39.509905,60.941394 46.7664594,60.941394 C54.0230139,60.941394 59.9266574,55.0270996 59.9266574,47.7574536 C59.9267762,41.097579 54.9714891,35.5760712 48.5606376,34.6965864" id="Fill-1" fill="#96C82F"></path>
                </g>
                <path d="M29.8101267,20.5075648 C30.800899,20.5075648 31.6041861,19.7028284 31.6041861,18.7102687 L31.6041861,18.3548564 C32.7750772,17.7155665 33.5713545,16.4710282 33.5713545,15.0437847 C33.5713545,12.9660628 31.8841069,11.2757713 29.8101267,11.2757713 C29.7147208,11.2757713 29.636899,11.1980472 29.636899,11.1023501 C29.636899,11.006534 29.7147208,10.9288099 29.8101267,10.9288099 L31.777295,10.9288099 C32.7680673,10.9288099 33.5713545,10.1240735 33.5713545,9.13151381 C33.5713545,8.13895408 32.7680673,7.33433677 31.777295,7.33433677 L31.5989584,7.33433677 C31.5460871,6.38914948 30.7666812,5.63857007 29.8101267,5.63857007 C28.8193545,5.63857007 28.0160673,6.44318739 28.0160673,7.43574712 L28.0160673,7.79127846 C26.8451762,8.43044932 26.048899,9.67498758 26.048899,11.1023501 C26.048899,13.180072 27.7361465,14.8702445 29.8101267,14.8702445 C29.9055327,14.8702445 29.9833545,14.9480876 29.9833545,15.0437847 C29.9833545,15.1394818 29.9055327,15.2173249 29.8101267,15.2173249 L27.8429584,15.2173249 C26.8521861,15.2173249 26.048899,16.0219423 26.048899,17.014502 C26.048899,18.0070617 26.8521861,18.8117981 27.8429584,18.8117981 L28.021295,18.8117981 C28.0741663,19.7568663 28.8535723,20.5075648 29.8101267,20.5075648" id="Fill-4" fill="#96C82F"></path>
                <path d="M46.7665782,45.7321509 L48.7337465,45.7321509 C49.7245188,45.7321509 50.5278059,44.9274146 50.5278059,43.9348548 C50.5278059,42.9422951 49.7245188,42.1376778 48.7337465,42.1376778 L48.5554099,42.1376778 C48.5025386,41.1926095 47.7231327,40.4420301 46.7665782,40.4420301 C45.7758059,40.4420301 44.9725188,41.2466474 44.9725188,42.2392072 L44.9725188,42.5946195 C43.8016277,43.2337903 43.0053505,44.4784476 43.0053505,45.9056911 C43.0053505,47.983413 44.692598,49.6737045 46.7665782,49.6737045 C46.8619842,49.6737045 46.9398059,49.7514286 46.9398059,49.8471257 C46.9398059,49.9428228 46.8619842,50.020666 46.7665782,50.020666 L44.7994099,50.020666 C43.8086376,50.020666 43.0053505,50.8252833 43.0053505,51.817843 C43.0053505,52.8104027 43.8086376,53.6151391 44.7994099,53.6151391 L44.9777465,53.6151391 C45.0306178,54.5602073 45.8100238,55.3109058 46.7665782,55.3109058 C47.7573505,55.3109058 48.5606376,54.5061694 48.5606376,53.5136097 L48.5606376,53.1581974 C49.7315287,52.5189075 50.5278059,51.2743692 50.5278059,49.8471257 C50.5278059,47.7694038 48.8405584,46.0791124 46.7665782,46.0791124 C46.6711723,46.0791124 46.5933505,46.0013882 46.5933505,45.9056911 C46.5933505,45.809875 46.6710535,45.7321509 46.7665782,45.7321509" id="Fill-6" fill="#96C82F"></path>
                <path d="M13.160198,40.4419944 C12.1694257,40.4419944 11.3661386,41.2467307 11.3661386,42.2392905 L11.3661386,42.5945838 C10.1952475,43.2338737 9.3989703,44.4784119 9.3989703,45.9056554 C9.3989703,47.9833773 11.0862178,49.6736688 13.160198,49.6736688 C13.255604,49.6736688 13.3334257,49.7513929 13.3334257,49.84709 C13.3334257,49.9429061 13.255604,50.0206302 13.160198,50.0206302 L11.1930297,50.0206302 C10.2022574,50.0206302 9.3989703,50.8253666 9.3989703,51.8179263 C9.3989703,52.8104861 10.2022574,53.6151034 11.1930297,53.6151034 L11.3713663,53.6151034 C11.4242376,54.5602907 12.2036436,55.3108701 13.160198,55.3108701 C14.1509703,55.3108701 14.9542574,54.5062527 14.9542574,53.513693 L14.9542574,53.1581617 C16.1251485,52.5189908 16.9214257,51.2744526 16.9214257,49.84709 C16.9214257,47.7693681 15.2341782,46.0791957 13.160198,46.0791957 C13.0647921,46.0791957 12.9869703,46.0013525 12.9869703,45.9056554 C12.9869703,45.8099583 13.0647921,45.7321152 13.160198,45.7321152 L15.1273663,45.7321152 C16.1181386,45.7321152 16.9214257,44.9274979 16.9214257,43.9349381 C16.9214257,42.9423784 16.1181386,42.1376421 15.1273663,42.1376421 L14.9490297,42.1376421 C14.8962772,41.1926928 14.1167525,40.4419944 13.160198,40.4419944" id="Fill-8" fill="#96C82F"></path>
            </g>
        </g>
    </g>
</svg>