<?xml version="1.0" encoding="UTF-8"?>
<svg width="61px" height="61px" viewBox="0 0 61 61" version="1.1" xmlns="http://www.w3.org/2000/svg" xmlns:xlink="http://www.w3.org/1999/xlink">
    <!-- Generator: Sketch 52.5 (67469) - http://www.bohemiancoding.com/sketch -->
    <title>icon</title>
    <desc>Created with Sketch.</desc>
    <g id="Site" stroke="none" stroke-width="1" fill="none" fill-rule="evenodd">
        <g id="Index" transform="translate(-1054.000000, -2779.000000)" fill="#96C82F">
            <g id="icon" transform="translate(1054.500000, 2779.125867)">
                <path d="M55.3674146,46.9431207 L35.1528293,55.5430223 C31.7761463,56.9889795 28.0141463,56.8377348 24.8145366,55.2417021 L14.1654146,49.9250512 L14.1654146,36.5690537 L19.4136585,35.0722432 C20.6839024,34.7092561 22.0346341,34.8347819 23.2167805,35.4251474 L37.7800976,42.696142 C38.6461463,43.1288332 38.9988293,44.1837463 38.5655122,45.0491286 C38.1237073,45.9310237 37.0609756,46.2592319 36.2092683,45.8334088 L27.5202439,41.4958295 C25.3039024,40.3888941 22.5765366,40.9928498 21.0371707,42.931996 C20.4340976,43.6905572 20.561561,44.793401 21.3212195,45.3950186 C22.0810244,45.9966361 23.1860488,45.8699413 23.7885366,45.1107955 C24.3017561,44.4646083 25.2106829,44.2636794 25.9492683,44.6323656 L34.6382927,48.9700911 C36.5487805,49.9238821 38.8925854,49.6408282 40.517122,48.1771892 L53.9982439,43.6905572 C54.8746829,43.3982971 55.9150244,43.7785276 56.2848293,44.6427409 C56.6724878,45.5446558 56.2419512,46.5685893 55.3674146,46.9431207 Z M10.6532195,53.0326536 L3.51219512,53.0326536 L3.51219512,31.9905059 L8.89770732,31.9905059 C9.86546341,31.9905059 10.6532195,32.7765396 10.6532195,33.7440669 L10.6532195,53.0326536 Z M59.5141463,43.2623961 C58.4022439,40.6652261 55.4417561,39.5121136 52.8870732,40.3637597 L42.2521463,43.9028843 C42.2212683,43.4650785 42.1355122,43.0284418 41.9925366,42.6014497 C41.5478049,41.2680127 40.6091707,40.1879652 39.3504878,39.5596059 L24.7877561,32.2884651 C22.8178537,31.3048635 20.5660976,31.0960436 18.4486829,31.6998531 L14.1036585,32.9397669 C13.7149756,30.419023 11.5283415,28.4833839 8.89712195,28.4833839 L1.75609756,28.4833839 C0.786,28.4833839 0,29.2682485 0,30.2369449 L0,54.7862146 C0,55.7543264 0.786,56.5397756 1.75609756,56.5397756 L12.4093171,56.5397756 C13.3794146,56.5397756 14.1654146,55.7543264 14.1654146,54.7862146 L14.1654146,53.8460136 L23.2442927,58.3789688 C27.3086341,60.4065238 32.1528293,60.6439852 36.5334146,58.7670903 L56.7468293,50.1682116 C59.4209268,49.0243053 60.660878,45.9339463 59.5141463,43.2623961 Z" id="Fill-1"></path>
                <g id="Group-7" transform="translate(35.121951, 10.942221)">
                    <path d="M3.62531707,1.75969848 C3.62531707,2.72781029 2.83873171,3.5132595 1.86921951,3.5132595 C0.899268293,3.5132595 0.113121951,2.72781029 0.113121951,1.75969848 C0.113121951,0.791002149 0.899268293,0.00613746356 1.86921951,0.00613746356 C2.83873171,0.00613746356 3.62531707,0.791002149 3.62531707,1.75969848" id="Fill-3"></path>
                    <path d="M10.6492683,8.77335803 C10.6492683,9.74205436 9.86312195,10.526919 8.89360976,10.526919 C7.92365854,10.526919 7.1375122,9.74205436 7.1375122,8.77335803 C7.1375122,7.80524621 7.92365854,7.01979701 8.89360976,7.01979701 C9.86312195,7.01979701 10.6492683,7.80524621 10.6492683,8.77335803" id="Fill-5"></path>
                </g>
                <g id="Group-12" transform="translate(21.073171, 0.128594)">
                    <path d="M24.186878,11.3328265 C23.501561,10.6484993 22.3890732,10.6484993 21.7037561,11.3328265 L14.6793659,18.3470705 C13.9933171,19.0321284 13.9933171,20.1422786 14.6793659,20.8267519 C15.3646829,21.5118098 16.4771707,21.5118098 17.1624878,20.8267519 L24.186878,13.8130924 C24.8729268,13.1280346 24.8729268,12.0178843 24.186878,11.3328265" id="Fill-8"></path>
                    <path d="M8.89712195,21.3405453 C9.86663415,21.3405453 10.6532195,20.5556806 10.6532195,19.5869843 L10.6532195,3.57141927 L28.2136098,3.57141927 L28.2136098,19.5869843 C28.2136098,20.5556806 28.9996098,21.3405453 29.9697073,21.3405453 L32.0790732,21.3405453 L19.4370732,31.3720834 L6.87921951,21.3405453 L8.89712195,21.3405453 Z M0.775756098,20.9563693 L18.3361463,34.9842729 C18.6567805,35.2405851 19.0450244,35.3690334 19.433122,35.3690334 C19.8196098,35.3690334 20.2059512,35.2417541 20.525561,34.9882184 L38.2031707,20.9597303 C38.7885366,20.4956212 39.0149268,19.7130946 38.7690732,19.0093321 C38.5232195,18.3048389 37.8578049,17.8334233 37.1107317,17.8334233 L31.7258049,17.8334233 L31.7258049,1.81785825 C31.7258049,0.849161922 30.9392195,0.0642972373 29.9697073,0.0642972373 L8.89712195,0.0642972373 C7.92702439,0.0642972373 7.14102439,0.849161922 7.14102439,1.81785825 L7.14102439,17.8334233 L1.87273171,17.8334233 C1.12668293,17.8334233 0.462439024,18.3036699 0.216146341,19.0064095 C-0.0308780488,19.709149 0.193170732,20.4910911 0.775756098,20.9563693 Z" id="Fill-10"></path>
                </g>
            </g>
        </g>
    </g>
</svg>